<?xml version="1.0" encoding="UTF-8"?>
<svg xmlns="http://www.w3.org/2000/svg" xmlns:xlink="http://www.w3.org/1999/xlink" xmlns:svgjs="http://svgjs.com/svgjs" version="1.1" width="512" height="512" x="0" y="0" viewBox="0 0 24 24" style="enable-background:new 0 0 512 512" xml:space="preserve" fill-rule="evenodd">
  <g>
    <path d="m18.309 12.797.368.886c.143.072.282.152.415.24l.952-.125a.751.751 0 0 1 .662.251 5.244 5.244 0 0 1 1.011 1.75c.081.238.038.5-.114.699l-.584.762c.009.16.009.321 0 .479l.584.763a.752.752 0 0 1 .114.699 5.244 5.244 0 0 1-1.011 1.75.751.751 0 0 1-.662.251l-.952-.125a4.294 4.294 0 0 1-.415.24l-.368.886a.751.751 0 0 1-.548.449 5.25 5.25 0 0 1-2.022 0 .751.751 0 0 1-.548-.449l-.368-.886a4.066 4.066 0 0 1-.415-.24l-.952.125a.751.751 0 0 1-.662-.251 5.244 5.244 0 0 1-1.011-1.75.752.752 0 0 1 .114-.699l.584-.762a4.252 4.252 0 0 1 0-.479l-.584-.763a.752.752 0 0 1-.114-.699 5.244 5.244 0 0 1 1.011-1.75.751.751 0 0 1 .662-.251l.952.125c.134-.088.273-.168.415-.24l.368-.886a.751.751 0 0 1 .548-.449 5.25 5.25 0 0 1 2.022 0 .751.751 0 0 1 .548.449zM16.75 16.25a1.25 1.25 0 1 0 0 2.5 1.25 1.25 0 0 0 0-2.5z" fill="#ffffff" data-original="#000000" opacity="1"/>
    <path d="M14.345 22.75H4.993A2.75 2.75 0 0 1 2.243 20V4a2.75 2.75 0 0 1 2.75-2.75h8.585c.465 0 .91.184 1.238.513l4.414 4.414c.328.328.513.773.513 1.237v5.415l-.32.042-.19-.458a1.751 1.751 0 0 0-1.28-1.046 6.243 6.243 0 0 0-2.406 0 1.751 1.751 0 0 0-1.28 1.046l-.19.458-.491-.064a1.75 1.75 0 0 0-1.546.584 6.253 6.253 0 0 0-1.203 2.085c-.19.553-.09 1.166.266 1.63l.302.394-.302.394a1.747 1.747 0 0 0-.266 1.63 6.253 6.253 0 0 0 1.203 2.085c.385.441.965.66 1.546.584l.491-.064.19.458c.024.056.05.11.078.163zm-.852-20.16V6.5a1 1 0 0 0 1 1h3.91a1.013 1.013 0 0 0-.203-.293l-4.414-4.414a.994.994 0 0 0-.293-.203zm-7.5 5.141h4.5a.75.75 0 0 0 0-1.5h-4.5a.75.75 0 0 0 0 1.5zm0 10.519h3.5a.75.75 0 0 0 0-1.5h-3.5a.75.75 0 0 0 0 1.5zm0-3.5h3.5a.75.75 0 0 0 0-1.5h-3.5a.75.75 0 0 0 0 1.5zm0-3.5h7a.75.75 0 0 0 0-1.5h-7a.75.75 0 0 0 0 1.5z" fill="#ffffff" data-original="#000000" opacity="1"/>
  </g>
</svg>
